<?xml version="1.0" encoding="utf-8"?>
<!-- Svg Vector Icons : http://www.onlinewebfonts.com/icon -->
<!DOCTYPE svg PUBLIC "-//W3C//DTD SVG 1.1//EN" "http://www.w3.org/Graphics/SVG/1.1/DTD/svg11.dtd">
<svg version="1.1" xmlns="http://www.w3.org/2000/svg" xmlns:xlink="http://www.w3.org/1999/xlink" x="0px" y="0px" viewBox="0 0 1000 1000" enable-background="new 0 0 1000 1000" xml:space="preserve">
<metadata> Svg Vector Icons : http://www.onlinewebfonts.com/icon </metadata>
<g><g transform="translate(0.000000,511.000000) scale(0.100000,-0.100000)"><path d="M3066.9,4964.7C1868.4,4701.4,913.6,3939.1,406.7,2842.8c-255.4-558-310.4-825.2-306.5-1571.7c0-613,7.8-695.5,110-1017.7c396.9-1304.6,1387.1-2263.3,2675.9-2601.2c754.4-200.4,1646.4-129.7,2389.1,180.8l282.9,117.9l1375.3-1375.3c1281-1281,1387.1-1375.3,1512.8-1375.3c125.8,0,196.5,58.9,797.7,660.1c597.2,597.3,656.2,668,656.2,793.7c0,125.8-98.2,235.8-1375.3,1512.8L7153.4-457.8l133.6,334c467.6,1167,345.8,2432.3-337.9,3473.5C6410.8,4171,5495.2,4780,4524.7,4968.6C4163.1,5039.4,3400.9,5035.4,3066.9,4964.7z M4674,4316.4C5695.6,4025.6,6505.1,3224,6835.1,2174.9c121.8-389,153.3-1119.9,58.9-1528.5c-66.8-314.4-243.6-785.9-349.7-935.2c-35.3-47.2-62.9-149.3-62.9-224c0-129.7,90.4-231.8,1355.6-1497.1l1355.6-1355.6L8847-3711.3c-188.6-188.6-361.5-341.9-381.2-341.9c-19.6,0-640.4,601.2-1375.3,1336c-1245.6,1245.6-1347.7,1336-1477.4,1336c-74.7,0-176.8-27.5-223.9-62.9c-161.1-110-644.5-290.8-962.7-353.6c-495.1-102.1-1119.9-62.9-1595.3,98.2C1880.2-1381.2,1172.9-681.8,842.8,257.3c-424.4,1225.9-47.2,2585.5,958.8,3442.1c392.9,334,868.4,561.9,1418.5,679.8C3577.7,4453.9,4292.8,4422.5,4674,4316.4z"/><path d="M3157.2,3691.6c-829.1-235.8-1430.3-821.2-1725-1673.9c-39.3-113.9-78.6-365.4-90.4-613c-35.4-766.2,188.6-1339.9,734.8-1886.1C3526.6-1931.3,5974.6-1102.2,6285,948.9c114,766.2-141.4,1505-726.9,2094.4c-341.8,345.8-695.5,550.1-1139.5,664.1C4100.3,3785.9,3463.7,3782,3157.2,3691.6z M4210.3,3133.6c860.5-180.8,1485.3-950.9,1485.3-1838.9c0-895.9-601.2-1662.1-1457.8-1850.7c-306.5-66.8-825.2-31.4-1104.2,74.6c-479.4,184.7-919.5,640.5-1088.4,1127.7C1550.1,2041.3,2764.3,3432.2,4210.3,3133.6z"/></g></g>
</svg>